- 
http://www.Speed.Cd
 
http://www.Speed.Cd       the fast  and The Hottest Private Tracker on the net

Please Seed back to make the speed Faster!!
 ............ NFO .............
-General
Unique ID                      : 191141213960321734598698543160412498348 (0x8FCC75711DD441DC80415E011C0269AC)
Complete name                  : The.Big.Bang.Theory.S06E03.1080p.WEB-DL.DD5.1.H.264.mkv
Format                         : Matroska
Format version                 : Version 2
File size                      : 765 MiB
Duration                       : 19mn 34s
Overall bit rate               : 5 463 Kbps
Encoded date                   : UTC 2012-10-13 16:24:27
Writing application            : mkvmerge v5.7.0 ('The Whirlwind') built on Jul 15 2012 00:01:52
Writing library                : libebml v1.2.2 + libmatroska v1.3.0

Video
ID                             : 1
Format                         : AVC
Format/Info                    : Advanced Video Codec
Format profile                 : High@L4.0
Format settings, CABAC         : Yes
Format settings, ReFrames      : 4 frames
Codec ID                       : V_MPEG4/ISO/AVC
Duration                       : 19mn 34s
Bit rate                       : 4 970 Kbps
Width                          : 1 920 pixels
Height                         : 1 080 pixels
Display aspect ratio           : 16:9
Frame rate mode                : Constant
Frame rate                     : 23.976 fps
Color space                    : YUV
Chroma subsampling             : 4:2:0
Bit depth                      : 8 bits
Scan type                      : Progressive
Bits/(Pixel*Frame)             : 0.100
Stream size                    : 696 MiB (91%)
Title                          : Video
Language                       : English
Default                        : Yes
Forced                         : Yes
Color primaries                : BT.709
Transfer characteristics       : BT.709
Matrix coefficients            : BT.709

Audio
ID                             : 2
Format                         : AC-3
Format/Info                    : Audio Coding 3
Mode extension                 : CM (complete main)
Format settings, Endianness    : Big
Codec ID                       : A_AC3
Duration                       : 19mn 34s
Bit rate mode                  : Constant
Bit rate                       : 384 Kbps
Channel(s)                     : 6 channels
Channel positions              : Front: L C R, Side: L R, LFE
Sampling rate                  : 48.0 KHz
Bit depth                      : 16 bits
Compression mode               : Lossy
Stream size                    : 53.8 MiB (7%)
Title                          : English
Language                       : English
Default                        : Yes
Forced                         : Yes